<?xml version="1.0" encoding="utf-8"?>
<!-- Generator: Adobe Illustrator 21.1.0, SVG Export Plug-In . SVG Version: 6.00 Build 0)  -->
<svg version="1.1" id="Слой_1" xmlns="http://www.w3.org/2000/svg" xmlns:xlink="http://www.w3.org/1999/xlink" x="0px" y="0px"
	 viewBox="0 0 425 126" style="enable-background:new 0 0 425 126;" xml:space="preserve">
<style type="text/css">
	.st0{fill-rule:evenodd;clip-rule:evenodd;fill:#1E2F51;}
	.st1{fill-rule:evenodd;clip-rule:evenodd;fill:#518147;}
	.st2{fill-rule:evenodd;clip-rule:evenodd;fill:#9EC65E;}
	.st3{fill:#1E2F51;}
</style>
<g>
	<g>
		<path class="st0" d="M189.8,39.5c-7.6,0-15.4,6.2-17.4,13.8h80.8c2-7.6-2.6-13.8-10.2-13.8H189.8L189.8,39.5z M176,92.5h53.2
			c7.6,0,15.4-6.2,17.4-13.8l1.5-5.9c2-7.6-2.6-13.8-10.2-13.8h-67c-2,7.6,2.6,13.8,10.2,13.8h53.2l-1.5,5.9h-67
			C163.8,86.4,168.3,92.5,176,92.5L176,92.5z M274.5,39.5c-7.6,0-15.4,6.2-17.4,13.8h80.8c2-7.6-2.6-13.8-10.2-13.8H274.5
			L274.5,39.5z M260.7,92.5h53.2c7.6,0,15.4-6.2,17.4-13.8l1.5-5.9c2-7.6-2.6-13.8-10.2-13.8h-67c-2,7.6,2.6,13.8,10.2,13.8H319
			l-1.5,5.9h-67C248.5,86.4,253.1,92.5,260.7,92.5L260.7,92.5z M345.4,92.5h53.2c7.6,0,15.4-6.2,17.4-13.8h-67l10.2-39.3
			c-7.6,0-15.4,6.2-17.4,13.8l-6.6,25.5C333.2,86.4,337.8,92.5,345.4,92.5L345.4,92.5z M103.2,53.2h51.5L148,78.8h-44.8L89.4,92.5
			h55c7.6,0,15.4-6.2,17.4-13.8l6.6-25.5c2-7.6-2.6-13.8-10.2-13.8h-69L103.2,53.2L103.2,53.2z"/>
		<polygon class="st1" points="55.5,44.7 32.9,67 55.5,89.3 78.2,67 55.5,44.7 		"/>
		<polygon class="st1" points="86.4,66 71.8,80.3 81.9,80.3 81.9,90.7 106.9,66 81.9,41.3 81.9,51.7 71.9,51.7 86.4,66 		"/>
		<path class="st2" d="M66,86.1L55.5,96.4L24.7,66l30.8-30.4L66,46h10l0-10.4L63.2,23c-4.2-4.2-11.1-4.2-15.4,0l-36,35.5
			c-4.2,4.2-4.2,11,0,15.2l36,35.5c4.3,4.2,11.2,4.2,15.4,0l12.8-12.6l0-10.4H66L66,86.1z"/>
	</g>
	<g>
		<g>
			<path class="st3" d="M96.4,100.8h-4.9v9.4h-1.8v-11h8.4v11h-1.8V100.8z"/>
			<path class="st3" d="M109.6,109.3c-0.4,0.4-1,0.6-1.7,0.8c-0.7,0.2-1.4,0.3-2.1,0.3c-0.8,0-1.6-0.1-2.2-0.4
				c-0.6-0.3-1.1-0.7-1.5-1.2c-0.4-0.5-0.7-1.1-0.9-1.8c-0.2-0.7-0.3-1.5-0.3-2.4c0-1.9,0.4-3.3,1.3-4.3c0.8-1,2-1.5,3.6-1.5
				c0.5,0,1,0.1,1.5,0.2c0.5,0.1,0.9,0.3,1.3,0.6c0.4,0.3,0.7,0.7,1,1.3s0.4,1.3,0.4,2.2c0,0.5,0,1-0.1,1.6h-7
				c0,0.6,0.1,1.2,0.2,1.7c0.1,0.5,0.3,0.9,0.6,1.3c0.3,0.3,0.6,0.6,1.1,0.8c0.4,0.2,1,0.3,1.6,0.3c0.5,0,1-0.1,1.5-0.3
				c0.5-0.2,0.9-0.4,1.1-0.6L109.6,109.3z M105.8,100.5c-0.9,0-1.6,0.2-2.1,0.7c-0.5,0.5-0.8,1.2-0.9,2.3h5.4c0-1.1-0.2-1.9-0.6-2.3
				C107.2,100.7,106.6,100.5,105.8,100.5z"/>
			<path class="st3" d="M112.7,99.2h1.2l0.3,1.3h0.1c0.3-0.5,0.8-0.9,1.3-1.2c0.5-0.3,1.1-0.4,1.8-0.4c1.5,0,2.6,0.4,3.3,1.3
				c0.7,0.9,1.1,2.3,1.1,4.2c0,0.9-0.1,1.8-0.4,2.5c-0.2,0.7-0.6,1.4-1,1.9c-0.4,0.5-1,0.9-1.6,1.2c-0.6,0.3-1.3,0.4-2.1,0.4
				c-0.5,0-1,0-1.3-0.1c-0.3-0.1-0.7-0.2-1-0.3v4.6h-1.8V99.2z M117.2,100.5c-0.7,0-1.3,0.2-1.8,0.6c-0.4,0.4-0.7,1-0.9,1.8v5.4
				c0.3,0.2,0.6,0.4,0.9,0.5c0.3,0.1,0.8,0.2,1.3,0.2c1,0,1.8-0.4,2.4-1.1c0.6-0.8,0.9-1.9,0.9-3.3c0-0.6-0.1-1.1-0.2-1.6
				c-0.1-0.5-0.3-0.9-0.5-1.3c-0.2-0.3-0.5-0.6-0.9-0.8C118.1,100.6,117.7,100.5,117.2,100.5z"/>
			<path class="st3" d="M124.6,99.3c0.5,0,1-0.1,1.6-0.1c0.6,0,1.3-0.1,2.1-0.1c1.4,0,2.5,0.2,3.1,0.7c0.6,0.4,0.9,1.1,0.9,2
				c0,0.5-0.2,1-0.4,1.5c-0.3,0.5-0.8,0.9-1.5,1.1v0.1c0.9,0.2,1.5,0.5,1.8,0.9c0.4,0.4,0.5,1,0.5,1.8c0,1.1-0.4,2-1.2,2.5
				c-0.8,0.5-2,0.8-3.7,0.8c-0.6,0-1.2,0-1.7-0.1c-0.5,0-1-0.1-1.6-0.1V99.3z M128.5,103.9c0.3,0,0.5,0,0.8-0.1
				c0.2-0.1,0.5-0.2,0.7-0.4c0.2-0.2,0.4-0.3,0.5-0.5c0.1-0.2,0.2-0.4,0.2-0.7c0-0.6-0.2-1-0.5-1.2c-0.4-0.2-1-0.3-1.8-0.3
				c-0.5,0-0.8,0-1.1,0c-0.3,0-0.5,0-0.8,0v3.2H128.5z M126.4,108.7c0.3,0,0.6,0.1,0.8,0.1c0.3,0,0.6,0,1,0c1,0,1.7-0.1,2.2-0.4
				c0.5-0.3,0.7-0.8,0.7-1.4c0-0.5-0.2-1-0.6-1.3c-0.4-0.3-1.1-0.5-2.1-0.5h-1.9V108.7z"/>
			<path class="st3" d="M134.9,104.7c0-1.9,0.4-3.3,1.2-4.3c0.8-1,2-1.5,3.6-1.5c0.8,0,1.5,0.1,2.1,0.4c0.6,0.3,1.1,0.7,1.5,1.2
				c0.4,0.5,0.7,1.1,0.9,1.8c0.2,0.7,0.3,1.5,0.3,2.4c0,1.9-0.4,3.3-1.2,4.3c-0.8,1-2,1.5-3.6,1.5c-0.8,0-1.5-0.1-2.1-0.4
				c-0.6-0.3-1.1-0.7-1.5-1.2c-0.4-0.5-0.7-1.1-0.9-1.8C135,106.4,134.9,105.6,134.9,104.7z M136.8,104.7c0,0.6,0.1,1.1,0.2,1.6
				c0.1,0.5,0.3,1,0.5,1.3c0.2,0.4,0.5,0.7,0.9,0.9c0.4,0.2,0.8,0.4,1.4,0.4c2,0,3-1.4,3-4.2c0-0.6-0.1-1.1-0.2-1.6
				c-0.1-0.5-0.3-1-0.5-1.3c-0.2-0.4-0.5-0.7-0.9-0.9c-0.4-0.2-0.8-0.3-1.4-0.3C137.8,100.5,136.8,101.9,136.8,104.7z"/>
			<path class="st3" d="M154.2,103.7l0.1-1.4h-0.1l-0.9,1.4l-4.9,6.5h-1v-11h1.8v6.7l-0.1,1.3h0.1l0.9-1.4l4.9-6.6h1v11h-1.8V103.7z
				"/>
			<path class="st3" d="M166.8,109.5c-0.4,0.3-1,0.6-1.6,0.7c-0.6,0.2-1.2,0.3-1.9,0.3c-0.8,0-1.6-0.1-2.2-0.4
				c-0.6-0.3-1.1-0.7-1.4-1.2c-0.4-0.5-0.6-1.1-0.8-1.8c-0.2-0.7-0.3-1.5-0.3-2.4c0-1.9,0.4-3.3,1.2-4.3c0.8-1,2-1.5,3.5-1.5
				c0.7,0,1.3,0.1,1.8,0.2c0.5,0.1,0.9,0.3,1.3,0.5l-0.5,1.5c-0.3-0.2-0.7-0.3-1.1-0.4c-0.4-0.1-0.8-0.2-1.3-0.2
				c-2.1,0-3.1,1.4-3.1,4.2c0,0.6,0.1,1.1,0.2,1.6c0.1,0.5,0.3,1,0.5,1.3c0.3,0.4,0.6,0.7,1,0.9c0.4,0.2,0.9,0.4,1.5,0.4
				c0.5,0,1-0.1,1.4-0.2c0.4-0.2,0.8-0.3,1-0.5L166.8,109.5z"/>
			<path class="st3" d="M175.8,100.8h-3.4v9.4h-1.8v-9.4h-3.4v-1.5h8.6V100.8z"/>
			<path class="st3" d="M176.6,104.7c0-1.9,0.4-3.3,1.2-4.3c0.8-1,2-1.5,3.6-1.5c0.8,0,1.5,0.1,2.1,0.4c0.6,0.3,1.1,0.7,1.5,1.2
				c0.4,0.5,0.7,1.1,0.9,1.8c0.2,0.7,0.3,1.5,0.3,2.4c0,1.9-0.4,3.3-1.2,4.3c-0.8,1-2,1.5-3.6,1.5c-0.8,0-1.5-0.1-2.1-0.4
				c-0.6-0.3-1.1-0.7-1.5-1.2c-0.4-0.5-0.7-1.1-0.9-1.8C176.7,106.4,176.6,105.6,176.6,104.7z M178.4,104.7c0,0.6,0.1,1.1,0.2,1.6
				c0.1,0.5,0.3,1,0.5,1.3c0.2,0.4,0.5,0.7,0.9,0.9c0.4,0.2,0.8,0.4,1.4,0.4c2,0,3-1.4,3-4.2c0-0.6-0.1-1.1-0.2-1.6
				c-0.1-0.5-0.3-1-0.5-1.3c-0.2-0.4-0.5-0.7-0.9-0.9c-0.4-0.2-0.8-0.3-1.4-0.3C179.4,100.5,178.4,101.9,178.4,104.7z"/>
			<path class="st3" d="M190.1,99.2v3c0,0.4,0,0.8,0.1,1.1c0,0.3,0.1,0.6,0.3,0.8c0.1,0.2,0.3,0.4,0.6,0.5c0.2,0.1,0.6,0.2,1,0.2
				c0.7,0,1.2-0.1,1.6-0.2c0.4-0.1,0.7-0.3,1-0.5v-4.9h1.8v11h-1.8v-4.6c-0.2,0.1-0.6,0.3-1,0.5c-0.5,0.2-1.1,0.3-1.9,0.3
				c-0.5,0-1-0.1-1.4-0.2c-0.4-0.1-0.8-0.3-1-0.6c-0.3-0.3-0.5-0.7-0.6-1.2c-0.1-0.5-0.2-1.1-0.2-1.8v-3.3H190.1z"/>
			<path class="st3" d="M206.5,105.4h-5v4.8h-1.8v-11h1.8v4.6h5v-4.6h1.8v11h-1.8V105.4z"/>
			<path class="st3" d="M218.4,103.7l0.1-1.4h-0.1l-0.9,1.4l-4.9,6.5h-1v-11h1.8v6.7l-0.1,1.3h0.1l0.9-1.4l4.9-6.6h1v11h-1.8V103.7z
				"/>
			<path class="st3" d="M226.3,105.3h-1v4.9h-1.8v-11h1.8v5l0.9-0.3l3.5-4.7h1.9l-3.4,4.4l-0.9,0.7l1.1,0.9l3.7,5H230L226.3,105.3z"
				/>
			<path class="st3" d="M239.9,99.3c0.5,0,1-0.1,1.6-0.1c0.6,0,1.3-0.1,2.1-0.1c1.4,0,2.5,0.2,3.1,0.7c0.6,0.4,0.9,1.1,0.9,2
				c0,0.5-0.1,1-0.4,1.5c-0.3,0.5-0.8,0.9-1.5,1.1v0.1c0.9,0.2,1.5,0.5,1.8,0.9c0.4,0.4,0.5,1,0.5,1.8c0,1.1-0.4,2-1.2,2.5
				c-0.8,0.5-2,0.8-3.7,0.8c-0.6,0-1.2,0-1.7-0.1c-0.5,0-1-0.1-1.6-0.1V99.3z M243.8,103.9c0.3,0,0.5,0,0.8-0.1
				c0.2-0.1,0.5-0.2,0.7-0.4c0.2-0.2,0.4-0.3,0.5-0.5c0.1-0.2,0.2-0.4,0.2-0.7c0-0.6-0.2-1-0.5-1.2c-0.4-0.2-1-0.3-1.8-0.3
				c-0.5,0-0.8,0-1.1,0c-0.3,0-0.5,0-0.8,0v3.2H243.8z M241.7,108.7c0.3,0,0.6,0.1,0.8,0.1c0.3,0,0.6,0,1,0c1,0,1.7-0.1,2.2-0.4
				c0.5-0.3,0.7-0.8,0.7-1.4c0-0.5-0.2-1-0.6-1.3c-0.4-0.3-1.1-0.5-2.1-0.5h-1.9V108.7z"/>
			<path class="st3" d="M257.7,103.7l0.1-1.4h-0.1l-0.9,1.4l-4.9,6.5h-1v-11h1.8v6.7l-0.1,1.3h0.1l0.9-1.4l4.9-6.6h1v11h-1.8V103.7z
				"/>
			<path class="st3" d="M272.6,113h-1.2l-0.3-2.8h-8.3l-0.3,2.8h-1.2v-4.3h1.3c0.1-0.2,0.3-0.5,0.5-0.9c0.2-0.4,0.4-1,0.6-1.8
				c0.2-0.8,0.3-1.7,0.5-2.8c0.1-1.1,0.2-2.5,0.3-4h6.6v9.4h1.6V113z M269.2,108.7v-7.9h-3.3c0,0.6-0.1,1.3-0.2,2
				c-0.1,0.7-0.2,1.4-0.3,2.2c-0.1,0.7-0.3,1.4-0.5,2.1c-0.2,0.6-0.4,1.2-0.7,1.7H269.2z"/>
			<path class="st3" d="M282.7,109.3c-0.4,0.4-1,0.6-1.7,0.8c-0.7,0.2-1.4,0.3-2.1,0.3c-0.8,0-1.6-0.1-2.2-0.4
				c-0.6-0.3-1.1-0.7-1.5-1.2c-0.4-0.5-0.7-1.1-0.9-1.8c-0.2-0.7-0.3-1.5-0.3-2.4c0-1.9,0.4-3.3,1.3-4.3c0.8-1,2-1.5,3.6-1.5
				c0.5,0,1,0.1,1.5,0.2c0.5,0.1,0.9,0.3,1.3,0.6c0.4,0.3,0.7,0.7,1,1.3c0.2,0.6,0.4,1.3,0.4,2.2c0,0.5,0,1-0.1,1.6h-7
				c0,0.6,0.1,1.2,0.2,1.7c0.1,0.5,0.3,0.9,0.6,1.3c0.3,0.3,0.6,0.6,1.1,0.8c0.4,0.2,1,0.3,1.6,0.3c0.5,0,1-0.1,1.5-0.3
				c0.5-0.2,0.9-0.4,1.1-0.6L282.7,109.3z M279,100.5c-0.9,0-1.6,0.2-2.1,0.7c-0.5,0.5-0.8,1.2-0.9,2.3h5.4c0-1.1-0.2-1.9-0.6-2.3
				C280.3,100.7,279.7,100.5,279,100.5z"/>
			<path class="st3" d="M285,104.7c0-1.9,0.4-3.3,1.2-4.3c0.8-1,2-1.5,3.6-1.5c0.8,0,1.5,0.1,2.1,0.4c0.6,0.3,1.1,0.7,1.5,1.2
				c0.4,0.5,0.7,1.1,0.9,1.8c0.2,0.7,0.3,1.5,0.3,2.4c0,1.9-0.4,3.3-1.2,4.3c-0.8,1-2,1.5-3.6,1.5c-0.8,0-1.5-0.1-2.1-0.4
				c-0.6-0.3-1.1-0.7-1.5-1.2c-0.4-0.5-0.7-1.1-0.9-1.8C285.1,106.4,285,105.6,285,104.7z M286.8,104.7c0,0.6,0.1,1.1,0.2,1.6
				c0.1,0.5,0.3,1,0.5,1.3c0.2,0.4,0.5,0.7,0.9,0.9c0.4,0.2,0.8,0.4,1.4,0.4c2,0,3-1.4,3-4.2c0-0.6-0.1-1.1-0.2-1.6
				c-0.1-0.5-0.3-1-0.5-1.3c-0.2-0.4-0.5-0.7-0.9-0.9c-0.4-0.2-0.8-0.3-1.4-0.3C287.8,100.5,286.8,101.9,286.8,104.7z"/>
			<path class="st3" d="M304.1,105.4h-5v4.8h-1.8v-11h1.8v4.6h5v-4.6h1.8v11h-1.8V105.4z"/>
			<path class="st3" d="M309.1,100.1c0.6-0.3,1.2-0.6,1.9-0.7c0.7-0.2,1.5-0.2,2.3-0.2c0.8,0,1.4,0.1,1.8,0.3
				c0.5,0.2,0.8,0.5,1.1,0.8c0.2,0.3,0.4,0.7,0.5,1.1c0.1,0.4,0.1,0.8,0.1,1.2c0,0.9,0,1.7-0.1,2.6c0,0.8-0.1,1.6-0.1,2.4
				c0,0.5,0,1.1,0.1,1.5c0,0.5,0.1,0.9,0.2,1.3h-1.3l-0.5-1.5h-0.1c-0.1,0.2-0.3,0.4-0.5,0.6c-0.2,0.2-0.4,0.4-0.7,0.5
				c-0.3,0.2-0.6,0.3-1,0.4c-0.4,0.1-0.8,0.2-1.3,0.2c-0.5,0-0.9-0.1-1.3-0.2c-0.4-0.1-0.7-0.4-1-0.6c-0.3-0.3-0.5-0.6-0.7-1
				c-0.2-0.4-0.3-0.8-0.3-1.3c0-0.6,0.1-1.2,0.4-1.6c0.3-0.4,0.6-0.8,1.1-1c0.5-0.3,1-0.4,1.7-0.5c0.7-0.1,1.4-0.2,2.2-0.2
				c0.2,0,0.4,0,0.6,0c0.2,0,0.4,0,0.6,0c0-0.4,0.1-0.8,0.1-1.2c0-0.8-0.2-1.4-0.5-1.7c-0.3-0.3-0.9-0.5-1.8-0.5
				c-0.2,0-0.5,0-0.8,0.1c-0.3,0-0.6,0.1-0.9,0.2c-0.3,0.1-0.6,0.2-0.9,0.2c-0.3,0.1-0.5,0.2-0.7,0.3L309.1,100.1z M312.2,108.9
				c0.4,0,0.8-0.1,1.1-0.2c0.3-0.1,0.6-0.2,0.8-0.4c0.2-0.2,0.4-0.4,0.6-0.6c0.2-0.2,0.3-0.4,0.3-0.6v-1.8c-0.2,0-0.4,0-0.6,0
				c-0.2,0-0.4,0-0.6,0c-0.5,0-0.9,0-1.3,0.1c-0.4,0.1-0.8,0.1-1.1,0.3c-0.3,0.1-0.6,0.3-0.8,0.6c-0.2,0.2-0.3,0.5-0.3,0.9
				c0,0.5,0.2,0.9,0.5,1.3C311.1,108.7,311.6,108.9,312.2,108.9z"/>
			<path class="st3" d="M321.1,101.2c0.5-0.7,1-1.2,1.6-1.5c0.6-0.3,1.3-0.4,2.2-0.4c1.3,0,2.4,0.4,3.1,1.3c0.7,0.9,1.1,2.2,1.1,3.9
				c0,2-0.4,3.5-1.3,4.5c-0.8,1-2,1.5-3.5,1.5c-1.6,0-2.8-0.6-3.6-1.7c-0.8-1.1-1.2-2.9-1.2-5.2c0-1.3,0.1-2.3,0.2-3.2
				c0.1-0.9,0.3-1.6,0.5-2.3c0.2-0.6,0.5-1.1,0.9-1.5c0.3-0.4,0.7-0.7,1.2-0.9c0.4-0.2,0.9-0.4,1.4-0.4c0.5-0.1,1.1-0.2,1.6-0.2
				c0.8-0.1,1.4-0.2,1.8-0.3c0.4-0.1,0.8-0.3,1-0.5l0.2,1.6c-0.1,0.1-0.3,0.2-0.5,0.3c-0.2,0.1-0.4,0.2-0.6,0.2
				c-0.2,0.1-0.5,0.1-0.9,0.2c-0.3,0-0.7,0.1-1.2,0.1c-0.6,0-1.2,0.1-1.7,0.2c-0.5,0.1-0.9,0.3-1.2,0.6c-0.3,0.3-0.6,0.8-0.8,1.3
				C321.3,99.5,321.1,100.2,321.1,101.2L321.1,101.2z M321.3,104.8c0,0.6,0.1,1.1,0.2,1.6c0.1,0.5,0.3,1,0.5,1.3
				c0.2,0.4,0.6,0.7,0.9,0.9c0.4,0.2,0.8,0.3,1.3,0.3c1,0,1.8-0.4,2.3-1.1c0.5-0.7,0.7-1.8,0.7-3.2c0-0.6-0.1-1.1-0.2-1.5
				c-0.1-0.5-0.3-0.9-0.5-1.2c-0.2-0.3-0.5-0.6-0.8-0.8c-0.3-0.2-0.7-0.3-1.2-0.3c-1.1,0-2,0.3-2.5,1
				C321.6,102.5,321.3,103.5,321.3,104.8z"/>
			<path class="st3" d="M337.7,100.8h-3.2c0,0.6-0.1,1.3-0.1,2c0,0.7-0.1,1.4-0.2,2.1c-0.1,0.7-0.2,1.4-0.4,2
				c-0.1,0.7-0.3,1.2-0.6,1.7c-0.2,0.5-0.5,0.9-0.8,1.2c-0.3,0.3-0.7,0.5-1.2,0.5c-0.3,0-0.5,0-0.7,0c-0.2,0-0.4-0.1-0.5-0.2
				l0.3-1.5c0.2,0.1,0.4,0.1,0.6,0.1c0.3,0,0.6-0.1,0.8-0.4c0.2-0.2,0.4-0.7,0.6-1.4c0.2-0.7,0.3-1.7,0.4-2.9
				c0.1-1.2,0.2-2.8,0.2-4.8h6.5v11h-1.8V100.8z"/>
			<path class="st3" d="M351.3,110.5c-0.8,0-1.5-0.1-2-0.4s-1-0.6-1.4-1c-0.4-0.4-0.6-1-0.8-1.6c-0.2-0.6-0.3-1.3-0.3-2.1h-2.2v4.8
				h-1.8v-11h1.8v4.6h2.2c0.1-1.6,0.5-2.8,1.3-3.6c0.7-0.8,1.8-1.3,3.3-1.3c0.8,0,1.5,0.1,2.1,0.4c0.6,0.3,1,0.7,1.4,1.2
				c0.4,0.5,0.6,1.1,0.8,1.8c0.2,0.7,0.2,1.5,0.2,2.4c0,1.9-0.4,3.3-1.1,4.3C354,110,352.8,110.5,351.3,110.5z M348.5,104.7
				c0,0.6,0,1.1,0.1,1.6c0.1,0.5,0.2,1,0.5,1.3c0.2,0.4,0.5,0.7,0.9,0.9c0.4,0.2,0.8,0.3,1.4,0.3c0.9,0,1.6-0.3,2-1
				c0.4-0.7,0.6-1.7,0.6-3.2c0-0.6,0-1.1-0.1-1.6c-0.1-0.5-0.2-1-0.4-1.3c-0.2-0.4-0.5-0.7-0.8-0.9c-0.3-0.2-0.8-0.3-1.3-0.3
				c-1,0-1.7,0.3-2.2,1C348.7,102.2,348.5,103.3,348.5,104.7z"/>
			<path class="st3" d="M368.2,113H367l-0.3-2.8h-8.3l-0.3,2.8h-1.2v-4.3h1.3c0.1-0.2,0.3-0.5,0.5-0.9c0.2-0.4,0.4-1,0.6-1.8
				c0.2-0.8,0.3-1.7,0.5-2.8c0.1-1.1,0.2-2.5,0.3-4h6.6v9.4h1.6V113z M364.8,108.7v-7.9h-3.3c0,0.6-0.1,1.3-0.2,2
				c-0.1,0.7-0.2,1.4-0.3,2.2c-0.1,0.7-0.3,1.4-0.5,2.1c-0.2,0.6-0.4,1.2-0.7,1.7H364.8z"/>
			<path class="st3" d="M378.3,109.3c-0.4,0.4-1,0.6-1.7,0.8c-0.7,0.2-1.4,0.3-2.1,0.3c-0.8,0-1.6-0.1-2.2-0.4
				c-0.6-0.3-1.1-0.7-1.5-1.2c-0.4-0.5-0.7-1.1-0.9-1.8c-0.2-0.7-0.3-1.5-0.3-2.4c0-1.9,0.4-3.3,1.3-4.3c0.8-1,2-1.5,3.6-1.5
				c0.5,0,1,0.1,1.5,0.2c0.5,0.1,0.9,0.3,1.3,0.6c0.4,0.3,0.7,0.7,1,1.3c0.2,0.6,0.4,1.3,0.4,2.2c0,0.5,0,1-0.1,1.6h-7
				c0,0.6,0.1,1.2,0.2,1.7c0.1,0.5,0.3,0.9,0.6,1.3c0.3,0.3,0.6,0.6,1.1,0.8c0.4,0.2,1,0.3,1.6,0.3c0.5,0,1-0.1,1.5-0.3
				c0.5-0.2,0.9-0.4,1.1-0.6L378.3,109.3z M374.6,100.5c-0.9,0-1.6,0.2-2.1,0.7c-0.5,0.5-0.8,1.2-0.9,2.3h5.4c0-1.1-0.2-1.9-0.6-2.3
				C375.9,100.7,375.3,100.5,374.6,100.5z"/>
			<path class="st3" d="M388.2,105.4h-5v4.8h-1.8v-11h1.8v4.6h5v-4.6h1.8v11h-1.8V105.4z"/>
			<path class="st3" d="M400.2,103.7l0.1-1.4h-0.1l-0.9,1.4l-4.9,6.5h-1v-11h1.8v6.7l-0.1,1.3h0.1l0.9-1.4l4.9-6.6h1v11h-1.8V103.7z
				"/>
			<path class="st3" d="M410.8,105.7l-1.7,0.3l-2.9,4.3h-2.1l2.6-3.8l0.9-0.8c-0.8-0.1-1.4-0.4-1.9-0.9c-0.5-0.5-0.8-1.2-0.8-2
				c0-0.7,0.1-1.2,0.3-1.7c0.2-0.5,0.6-0.9,1-1.2c0.4-0.3,0.9-0.5,1.5-0.7c0.6-0.1,1.2-0.2,2-0.2c0.5,0,1,0,1.5,0.1
				c0.5,0.1,0.9,0.2,1.4,0.2v10.9h-1.8V105.7z M410.8,100.7c-0.2-0.1-0.4-0.1-0.6-0.2c-0.2,0-0.4-0.1-0.6-0.1
				c-0.9,0-1.6,0.2-2.1,0.5c-0.5,0.3-0.7,0.9-0.7,1.6c0,0.7,0.3,1.2,0.8,1.5c0.5,0.4,1.2,0.5,2.1,0.5c0,0,0,0,0.1,0c0,0,0.1,0,0.2,0
				c0.1,0,0.2,0,0.4,0c0.2,0,0.4,0,0.7,0V100.7z"/>
		</g>
	</g>
</g>
</svg>
